<svg xmlns="http://www.w3.org/2000/svg" xmlns:xlink="http://www.w3.org/1999/xlink" xmlns:lucid="lucid" width="2001" height="510.02"><g transform="translate(180.5 149.52246357465148)" lucid:page-tab-id="0_0"><path d="M-64 260c13.26 0 24 17.9 24 40s-10.74 40-24 40h-72c-13.25 0-24-17.9-24-40s10.75-40 24-40z" stroke="#000" stroke-opacity="0" fill="#ff741d"/><use xlink:href="#a" transform="matrix(1,0,0,1,-155,265) translate(8.100000000000009 38.4625)"/><use xlink:href="#b" transform="matrix(1,0,0,1,-155,265) translate(41.95 38.4625)"/><path d="M146.76 128a8 8 0 0 1 8-8h124a8 8 0 0 1 8 8v64a8 8 0 0 1-8 8h-124a8 8 0 0 1-8-8z" stroke="#000" stroke-opacity="0" stroke-width="2" fill="#ff8839"/><use xlink:href="#c" transform="matrix(1,0,0,1,151.76161056255637,125) translate(10.149999999999999 38.4625)"/><path d="M53.88 172.02v116l-.15 1.94-.46 1.9-.75 1.82-1.03 1.67-1.28 1.5-1.5 1.26-1.66 1.04-1.82.75-1.9.45-1.94.15h-80.9v-1h80.86l1.82-.14 1.75-.42 1.67-.7 1.54-.94 1.37-1.17 1.18-1.37.95-1.54.7-1.67.4-1.75.15-1.82v-116l.1-1.3h1z" stroke="#333" stroke-width=".05" fill="#333"/><path d="M-39.5 300.5h-.53l.03-.5-.02-.5h.53z" fill="#333"/><path d="M-39.46 300.52h-.6l.04-.52-.02-.52h.58zm-.53-1l.02.48-.02.48h.5v-.96z" stroke="#333" stroke-width=".05" fill="#333"/><path fill="#333"/><path d="M146.76 160l-.92.3v-.6z" stroke="#333" stroke-width=".05" fill="#333"/><path d="M327.25-120.52a8 8 0 0 1 8-8H1172a8 8 0 0 1 8 8v44a8 8 0 0 1-8 8H335.25a8 8 0 0 1-8-8z" stroke="#000" stroke-opacity="0" stroke-width="2" fill="#fff" fill-opacity="0"/><use xlink:href="#d" transform="matrix(1,0,0,1,331.250491531885,-124.52246357465148) translate(161.8865432098766 37.57444444444444)"/><use xlink:href="#e" transform="matrix(1,0,0,1,331.250491531885,-124.52246357465148) translate(279.56432098765436 37.57444444444444)"/><use xlink:href="#f" transform="matrix(1,0,0,1,331.250491531885,-124.52246357465148) translate(503.3828395061728 37.57444444444444)"/><path d="M-64-14.26c13.26 0 24 17.9 24 40s-10.74 40-24 40h-72c-13.25 0-24-17.9-24-40s10.75-40 24-40z" stroke="#000" stroke-opacity="0" fill="#ff741d"/><use xlink:href="#g" transform="matrix(1,0,0,1,-155,-9.261231787325755) translate(30.050000000000004 38.4625)"/><path d="M48.4 25.32l1 .23.93.4.87.53.78.66.66.78.53.87.4.93.23 1 .08 1v117.6h-1V31.76l-.07-.88-.2-.84-.32-.8-.45-.73-.56-.65-.66-.56-.72-.46-.8-.33-.84-.2-.88-.06H-39.5v-1h86.9z" stroke="#3a414a" stroke-width=".05" fill="#3a414a"/><path d="M-39.5 26.24h-.53l.03-.5-.02-.5h.53z" fill="#3a414a"/><path d="M-39.46 26.26h-.6l.04-.52-.02-.53h.58zm-.53-1l.02.48-.02.47h.5v-.94z" stroke="#3a414a" stroke-width=".05" fill="#3a414a"/><path fill="#3a414a"/><path d="M146.76 160l-.92.3v-.6z" stroke="#3a414a" stroke-width=".05" fill="#3a414a"/><use xlink:href="#h" transform="matrix(1,0,0,1,-1.020755802004743,149.33333333333334) translate(0 14.222222222222223)"/><use xlink:href="#i" transform="matrix(1,0,0,1,-1.020755802004743,149.33333333333334) translate(86.66666666666669 14.222222222222223)"/><path d="M572-14.26c15.46 0 28 17.9 28 40s-12.54 40-28 40h-84c-15.46 0-28-17.9-28-40s12.54-40 28-40z" stroke="#000" stroke-opacity="0" fill="#ff741d"/><use xlink:href="#j" transform="matrix(1,0,0,1,465,-9.261231787325755) translate(36.6408024691358 26.52777777777778)"/><use xlink:href="#k" transform="matrix(1,0,0,1,465,-9.261231787325755) translate(24.9124074074074 53.19444444444445)"/><path d="M572 120c15.46 0 28 17.9 28 40s-12.54 40-28 40h-84c-15.46 0-28-17.9-28-40s12.54-40 28-40z" stroke="#000" stroke-opacity="0" fill="#ff741d"/><use xlink:href="#l" transform="matrix(1,0,0,1,465,125) translate(36.85685185185185 26.52777777777778)"/><use xlink:href="#k" transform="matrix(1,0,0,1,465,125) translate(24.9124074074074 53.19444444444445)"/><path d="M572 260c15.46 0 28 17.9 28 40s-12.54 40-28 40h-84c-15.46 0-28-17.9-28-40s12.54-40 28-40z" stroke="#000" stroke-opacity="0" fill="#ff741d"/><use xlink:href="#m" transform="matrix(1,0,0,1,465,265) translate(26.795123456790115 26.52777777777778)"/><use xlink:href="#k" transform="matrix(1,0,0,1,465,265) translate(24.9124074074074 53.19444444444445)"/><path d="M335.4 160.5h-48.14v-1h48.14zm108.22 0h-32.26v-1h32.26z" stroke="#3a414a" stroke-width=".05" fill="#3a414a"/><path d="M287.27 160.5h-.5v-1h.5z" fill="#3a414a"/><path d="M287.3 160.53h-.56v-1.06h.56zm-.5-1v.94h.45v-.94z" stroke="#3a414a" stroke-width=".05" fill="#3a414a"/><path d="M458.38 160l-14.26 4.63v-9.26z" fill="#3a414a"/><path d="M460 160l-16.38 5.32v-10.64zm-15.38 3.95l12.14-3.95-12.14-3.95z" stroke="#3a414a" stroke-width=".05" fill="#3a414a"/><use xlink:href="#n" transform="matrix(1,0,0,1,335.4054716393029,149.33333333333334) translate(0 14.222222222222223)"/><path d="M275.96 26.24h-53.18l-.88.07-.84.2-.8.34-.73.45-.66.55-.56.66-.44.74-.33.8-.2.84-.07.88v87.74h-1V31.72l.08-1 .24-1 .4-.93.52-.88.66-.78.78-.66.87-.53.95-.4 1-.23 1-.08h53.2zm167.66 0h-91.7v-1h91.7z" stroke="#3a414a" stroke-width=".05" fill="#3a414a"/><path d="M217.26 120h-1v-.5h1z" fill="#3a414a"/><path d="M217.3 120.03h-1.06v-.57h1.05zm-1-.52v.47h.94v-.46z" stroke="#3a414a" stroke-width=".05" fill="#3a414a"/><path d="M458.38 25.74l-14.26 4.63V21.1z" fill="#3a414a"/><path d="M460 25.74l-16.38 5.32V20.42zm-15.38 3.95l12.14-3.96-12.14-3.95z" stroke="#3a414a" stroke-width=".05" fill="#3a414a"/><use xlink:href="#o" transform="matrix(1,0,0,1,275.9584949040733,15.072101546007577) translate(0 14.222222222222223)"/><path d="M217.26 293.98l.07.88.2.84.33.8.45.73.57.66.66.55.73.45.8.33.84.2.88.07h51v1h-51.04l-1-.08-1-.24-.93-.4-.86-.52-.78-.66-.66-.78-.53-.87-.4-.94-.23-.98-.08-1V200.5h1zm226.36 5.52v1h-93.9v-1z" stroke="#3a414a" stroke-width=".05" fill="#3a414a"/><path d="M217.26 200.5h-1v-.5h1z" fill="#3a414a"/><path d="M217.3 200.54h-1.06v-.56h1.05zm-1-.5v.45h.94v-.47z" stroke="#3a414a" stroke-width=".05" fill="#3a414a"/><path d="M458.38 300l-14.26 4.63v-9.26z" fill="#3a414a"/><path d="M460 300l-16.38 5.32v-10.64zm-15.38 3.95l12.14-3.95-12.14-3.95z" stroke="#3a414a" stroke-width=".05" fill="#3a414a"/><use xlink:href="#p" transform="matrix(1,0,0,1,273.7766444763723,289.3333333333333) translate(0 14.222222222222223)"/><path d="M635.15 26.24H600.5v-1h34.65zm88.47 0h-49.06v-1h49.06z" stroke="#3a414a" stroke-width=".05" fill="#3a414a"/><path d="M600.5 26.24h-.53l.03-.5-.02-.5h.53z" fill="#3a414a"/><path d="M600.54 26.26h-.6l.03-.52v-.53h.57zm-.53-1l.02.48-.02.47h.5v-.94z" stroke="#3a414a" stroke-width=".05" fill="#3a414a"/><path d="M738.38 25.74l-14.26 4.63V21.1z" fill="#3a414a"/><path d="M740 25.74l-16.38 5.32V20.42zm-15.38 3.95l12.14-3.96-12.14-3.95z" stroke="#3a414a" stroke-width=".05" fill="#3a414a"/><use xlink:href="#q" transform="matrix(1,0,0,1,635.1518468031741,15.072101546007577) translate(0 14.222222222222223)"/><path d="M643.25 160.5H600.5v-1h42.75zm100.37 0h-63.88v-1h63.88z" stroke="#3a414a" stroke-width=".05" fill="#3a414a"/><path d="M600.5 160.5h-.53l.03-.5-.02-.5h.53z" fill="#3a414a"/><path d="M600.54 160.53h-.6l.03-.53v-.53h.57zm-.53-1l.02.47-.02.47h.5v-.94z" stroke="#3a414a" stroke-width=".05" fill="#3a414a"/><path d="M758.38 160l-14.26 4.63v-9.26z" fill="#3a414a"/><path d="M760 160l-16.38 5.32v-10.64zm-15.38 3.95l12.14-3.95-12.14-3.95z" stroke="#3a414a" stroke-width=".05" fill="#3a414a"/><use xlink:href="#r" transform="matrix(1,0,0,1,643.2477269866756,149.33333333333334) translate(0 14.222222222222223)"/><path d="M600.5 300H804a6 6 0 0 0 6-6v-77.62" stroke="#3a414a" fill="none"/><path d="M600.5 300.5h-.53l.03-.5-.02-.5h.53z" stroke="#3a414a" stroke-width=".05" fill="#3a414a"/><path d="M810 201.62l4.63 14.26h-9.26z" stroke="#3a414a" fill="#3a414a"/><path d="M852-14.26c15.46 0 28 17.9 28 40s-12.54 40-28 40h-84c-15.46 0-28-17.9-28-40s12.54-40 28-40z" stroke="#000" stroke-opacity="0" fill="#ff741d"/><use xlink:href="#j" transform="matrix(1,0,0,1,745,-9.261231787325755) translate(36.6408024691358 26.52777777777778)"/><use xlink:href="#s" transform="matrix(1,0,0,1,745,-9.261231787325755) translate(10.128456790123453 53.19444444444445)"/><path d="M852 120c15.46 0 28 17.9 28 40s-12.54 40-28 40h-84c-15.46 0-28-17.9-28-40s12.54-40 28-40z" stroke="#000" stroke-opacity="0" fill="#ff741d"/><use xlink:href="#l" transform="matrix(1,0,0,1,745,125) translate(36.85685185185185 26.52777777777778)"/><use xlink:href="#s" transform="matrix(1,0,0,1,745,125) translate(10.128456790123453 53.19444444444445)"/><path d="M940.3 26.24h-59.8v-1h59.8zm83.32 0H979.7v-1h43.92z" stroke="#3a414a" stroke-width=".05" fill="#3a414a"/><path d="M880.5 26.24h-.53l.03-.5-.02-.5h.53z" fill="#3a414a"/><path d="M880.54 26.26h-.6l.03-.52v-.53h.57zm-.53-1l.02.48-.02.47h.5v-.94z" stroke="#3a414a" stroke-width=".05" fill="#3a414a"/><path d="M1038.38 25.74l-14.26 4.63V21.1z" fill="#3a414a"/><path d="M1040 25.74l-16.38 5.32V20.42zm-15.38 3.95l12.14-3.96-12.14-3.95z" stroke="#3a414a" stroke-width=".05" fill="#3a414a"/><use xlink:href="#q" transform="matrix(1,0,0,1,940.2962962962963,15.072101546007577) translate(0 14.222222222222223)"/><path d="M941.76 160.5H880.5v-1h61.26zm81.88 0h-45.38v-1h45.38z" stroke="#3a414a" stroke-width=".05" fill="#3a414a"/><path d="M880.5 160.5h-.53l.03-.5-.02-.5h.53z" fill="#3a414a"/><path d="M880.54 160.53h-.6l.03-.53v-.53h.57zm-.53-1l.02.47-.02.47h.5v-.94z" stroke="#3a414a" stroke-width=".05" fill="#3a414a"/><path d="M1038.4 160l-14.26 4.63v-9.26z" fill="#3a414a"/><path d="M1040.02 160l-16.38 5.32v-10.64zm-15.38 3.95l12.14-3.95-12.14-3.95z" stroke="#3a414a" stroke-width=".05" fill="#3a414a"/><use xlink:href="#r" transform="matrix(1,0,0,1,941.7638314717807,149.33333333333334) translate(0 14.222222222222223)"/><path d="M1152-14.26c15.46 0 28 17.9 28 40s-12.54 40-28 40h-84c-15.46 0-28-17.9-28-40s12.54-40 28-40z" stroke="#000" stroke-opacity="0" fill="#ff741d"/><use xlink:href="#j" transform="matrix(1,0,0,1,1045,-9.261231787325755) translate(36.6408024691358 26.52777777777778)"/><use xlink:href="#t" transform="matrix(1,0,0,1,1045,-9.261231787325755) translate(23.67783950617283 53.19444444444445)"/><path d="M1152 119.4c15.46 0 28 17.9 28 40 0 22.08-12.54 40-28 40h-84c-15.46 0-28-17.92-28-40 0-22.1 12.54-40 28-40z" stroke="#000" stroke-opacity="0" fill="#ff741d"/><use xlink:href="#l" transform="matrix(1,0,0,1,1045,124.39034546378593) translate(36.85685185185185 26.52777777777778)"/><use xlink:href="#t" transform="matrix(1,0,0,1,1045,124.39034546378593) translate(23.67783950617283 53.19444444444445)"/><path d="M1425.02 25.32l1 .23.93.4.87.53.78.66.66.78.53.87.38.93.24 1 .08 1v71.9h-1V31.75l-.07-.88-.2-.84-.33-.8-.45-.73-.56-.65-.67-.56-.73-.46-.8-.33-.84-.2-.88-.06h-12.42v-1h12.46zm-244.52.92v-1h60.4v1z" stroke="#3a414a" stroke-width=".05" fill="#3a414a"/><path d="M1180.5 26.24h-.53l.03-.5-.02-.5h.53z" fill="#3a414a"/><path d="M1180.54 26.26h-.6l.03-.52v-.53h.57zm-.53-1l.03.48-.03.47h.5v-.94z" stroke="#3a414a" stroke-width=".05" fill="#3a414a"/><path d="M1430 118.38l-4.63-14.26h9.27z" fill="#3a414a"/><path d="M1430 120l-5.32-16.38h10.64zm-3.95-15.38l3.95 12.14 3.95-12.14z" stroke="#3a414a" stroke-width=".05" fill="#3a414a"/><use xlink:href="#u" transform="matrix(1,0,0,1,1240.897031972677,15.072101546007577) translate(0 14.222222222222223)"/><use xlink:href="#v" transform="matrix(1,0,0,1,1240.897031972677,15.072101546007577) translate(94.71604938271605 14.222222222222223)"/><path d="M1180.5 159.4h163.12" stroke="#3a414a" fill="none"/><path d="M1180.5 159.9h-.53l.03-.5-.02-.5h.53z" stroke="#3a414a" stroke-width=".05" fill="#3a414a"/><path d="M1358.38 159.4l-14.26 4.63v-9.28z" stroke="#3a414a" fill="#3a414a"/><g><use xlink:href="#u" transform="matrix(1,0,0,1,1179.982126352022,163.39034546378593) translate(0 14.222222222222223)"/><use xlink:href="#w" transform="matrix(1,0,0,1,1179.982126352022,163.39034546378593) translate(94.71604938271605 14.222222222222223)"/></g><path d="M1360 128a8 8 0 0 1 8-8h124a8 8 0 0 1 8 8v64a8 8 0 0 1-8 8h-124a8 8 0 0 1-8-8z" stroke="#000" stroke-opacity="0" stroke-width="2" fill="#ff8839"/><g><use xlink:href="#x" transform="matrix(1,0,0,1,1365,125) translate(21.625 38.4625)"/></g><path stroke="#3a414a" stroke-width=".05" fill="#3a414a"/><path fill="#3a414a"/><path stroke="#3a414a" stroke-width=".05" fill="#3a414a"/><path fill="#3a414a"/><path d="M1640 160l-.57.2v-.38z" stroke="#3a414a" stroke-width=".05" fill="#3a414a"/><g><use xlink:href="#h" transform="matrix(1,0,0,1,1492.5678762345678,149.33333333333334) translate(0 14.222222222222223)"/><use xlink:href="#i" transform="matrix(1,0,0,1,1492.5678762345678,149.33333333333334) translate(86.66666666666669 14.222222222222223)"/></g><path d="M1768 120c17.67 0 32 17.9 32 40s-14.33 40-32 40h-96c-17.67 0-32-17.9-32-40s14.33-40 32-40z" stroke="#000" stroke-opacity="0" fill="#ff741d"/><g><use xlink:href="#y" transform="matrix(1,0,0,1,1645,125) translate(27.03703703703703 39.65277777777778)"/></g><defs><path fill="#1071e5" d="M87-220l-18 92h140l-5 28H64L45 0H11l48-248h178l-5 28H87" id="z"/><path fill="#1071e5" d="M50-231l6-30h32l-6 30H50zM6 0l37-190h31L37 0H6" id="A"/><path fill="#1071e5" d="M6 0l50-261h32L37 0H6" id="B"/><path fill="#1071e5" d="M111-194c62-3 86 47 72 106H45c-7 38 6 69 45 68 27-1 43-14 53-32l24 11C152-15 129 4 87 4 38 3 12-23 12-71c0-70 32-119 99-123zm44 81c14-66-71-72-95-28-4 8-8 17-11 28h106" id="C"/><g id="a"><use transform="matrix(0.04999999999999999,0,0,0.04999999999999999,0,0)" xlink:href="#z"/><use transform="matrix(0.04999999999999999,0,0,0.04999999999999999,10.949999999999998,0)" xlink:href="#A"/><use transform="matrix(0.04999999999999999,0,0,0.04999999999999999,14.899999999999997,0)" xlink:href="#B"/><use transform="matrix(0.04999999999999999,0,0,0.04999999999999999,18.849999999999994,0)" xlink:href="#C"/></g><path fill="#1071e5" d="M194-120c59 52 2 134-86 124-53-6-90-18-98-63l31-7c8 30 29 43 70 43 46 0 84-17 71-62-32-43-135-20-137-98-3-89 178-90 191-16l-30 9c-8-48-127-53-127 5 0 53 81 35 115 65" id="D"/><path fill="#1071e5" d="M198-190L69 30C53 58 25 83-20 72c4-11-1-27 19-22 33-1 43-29 59-52L20-190h32L79-34l84-156h35" id="E"/><path fill="#1071e5" d="M55-144c13 50 104 24 104 88C159 21 15 23 1-39l26-10c6 40 102 42 102-4-13-50-104-23-104-87 0-71 143-71 148-8l-29 4c-5-35-85-37-89 0" id="F"/><path fill="#1071e5" d="M51-54c-9 22 5 41 31 30L79-1C43 14 10-4 19-52l22-115H19l5-23h22l19-43h21l-9 43h35l-4 23H73" id="G"/><path fill="#1071e5" d="M248-111c6-24 9-61-24-58-72 9-57 108-77 169h-31l26-142c3-37-50-30-64-10C52-115 50-51 37 0H6l36-190h30c-1 10-6 24-4 32 13-43 101-52 105 5 13-22 29-41 61-41 90 0 28 129 23 194h-31" id="H"/><g id="b"><use transform="matrix(0.04999999999999999,0,0,0.04999999999999999,0,0)" xlink:href="#D"/><use transform="matrix(0.04999999999999999,0,0,0.04999999999999999,11.999999999999996,0)" xlink:href="#E"/><use transform="matrix(0.04999999999999999,0,0,0.04999999999999999,20.999999999999993,0)" xlink:href="#F"/><use transform="matrix(0.04999999999999999,0,0,0.04999999999999999,29.999999999999993,0)" xlink:href="#G"/><use transform="matrix(0.04999999999999999,0,0,0.04999999999999999,34.99999999999999,0)" xlink:href="#C"/><use transform="matrix(0.04999999999999999,0,0,0.04999999999999999,44.99999999999999,0)" xlink:href="#H"/></g><path fill="#1071e5" d="M248-139C247-14 144 9 11 0l48-248c105-6 190 8 189 109zm-34 0c1-70-52-87-126-82L50-27c98 7 163-21 164-112" id="I"/><path fill="#1071e5" d="M67 3c-93-2-31-127-26-193h32L48-50c-3 39 53 32 70 12 30-34 30-101 43-152h32L157 0h-30c1-10 6-24 4-33-14 20-29 37-64 36" id="J"/><path fill="#1071e5" d="M67-162c32-53 139-36 121 50C175-51 163 2 97 4 68 4 52-11 42-31 38 6 28 39 22 75H-9l50-265h29c-1 10 0 20-3 28zm89 36c0-26-10-43-35-43-54 0-67 50-69 103-1 29 14 45 42 46 53 0 62-58 62-106" id="K"/><path fill="#1071e5" d="M124 0L87-78 21 0h-35l86-98-46-92h33l34 74 61-74h37l-83 92 50 98h-34" id="L"/><path fill="#1071e5" d="M66-151c12-25 30-51 66-40l-6 26C45-176 58-65 38 0H6l36-190h30" id="M"/><g id="c"><use transform="matrix(0.04999999999999999,0,0,0.04999999999999999,0,0)" xlink:href="#I"/><use transform="matrix(0.04999999999999999,0,0,0.04999999999999999,12.949999999999998,0)" xlink:href="#C"/><use transform="matrix(0.04999999999999999,0,0,0.04999999999999999,22.949999999999996,0)" xlink:href="#H"/><use transform="matrix(0.04999999999999999,0,0,0.04999999999999999,37.89999999999999,0)" xlink:href="#J"/><use transform="matrix(0.04999999999999999,0,0,0.04999999999999999,47.89999999999999,0)" xlink:href="#B"/><use transform="matrix(0.04999999999999999,0,0,0.04999999999999999,51.85,0)" xlink:href="#G"/><use transform="matrix(0.04999999999999999,0,0,0.04999999999999999,56.85,0)" xlink:href="#A"/><use transform="matrix(0.04999999999999999,0,0,0.04999999999999999,60.8,0)" xlink:href="#K"/><use transform="matrix(0.04999999999999999,0,0,0.04999999999999999,70.8,0)" xlink:href="#B"/><use transform="matrix(0.04999999999999999,0,0,0.04999999999999999,74.75,0)" xlink:href="#C"/><use transform="matrix(0.04999999999999999,0,0,0.04999999999999999,84.75,0)" xlink:href="#L"/><use transform="matrix(0.04999999999999999,0,0,0.04999999999999999,93.75,0)" xlink:href="#C"/><use transform="matrix(0.04999999999999999,0,0,0.04999999999999999,103.75,0)" xlink:href="#M"/></g><path fill="#1071e5" d="M147 0H94L2-248h55l64 206c17-72 42-137 63-206h54" id="N"/><path fill="#1071e5" d="M25-224v-37h50v37H25zM25 0v-190h50V0H25" id="O"/><path fill="#1071e5" d="M88-194c31-1 46 15 58 34l-1-101h50l1 261h-48c-2-10 0-23-3-31C134-8 116 4 84 4 32 4 16-41 15-95c0-56 19-97 73-99zm17 164c33 0 40-30 41-66 1-37-9-64-41-64s-38 30-39 65c0 43 13 65 39 65" id="P"/><path fill="#1071e5" d="M185-48c-13 30-37 53-82 52C43 2 14-33 14-96s30-98 90-98c62 0 83 45 84 108H66c0 31 8 55 39 56 18 0 30-7 34-22zm-45-69c5-46-57-63-70-21-2 6-4 13-4 21h74" id="Q"/><path fill="#1071e5" d="M110-194c64 0 96 36 96 99 0 64-35 99-97 99-61 0-95-36-95-99 0-62 34-99 96-99zm-1 164c35 0 45-28 45-65 0-40-10-65-43-65-34 0-45 26-45 65 0 36 10 65 43 65" id="R"/><g id="d"><use transform="matrix(0.10987654320987651,0,0,0.10987654320987651,0,0)" xlink:href="#N"/><use transform="matrix(0.10987654320987651,0,0,0.10987654320987651,25.601234567901226,0)" xlink:href="#O"/><use transform="matrix(0.10987654320987651,0,0,0.10987654320987651,36.588888888888874,0)" xlink:href="#P"/><use transform="matrix(0.10987654320987651,0,0,0.10987654320987651,60.65185185185184,0)" xlink:href="#Q"/><use transform="matrix(0.10987654320987651,0,0,0.10987654320987651,82.62716049382713,0)" xlink:href="#R"/></g><path fill="#1071e5" d="M24-248c93 1 206-16 204 79-1 75-69 88-152 82V0H24v-248zm52 121c47 0 100 7 100-41 0-47-54-39-100-39v80" id="S"/><path fill="#1071e5" d="M135-150c-39-12-60 13-60 57V0H25l-1-190h47c2 13-1 29 3 40 6-28 27-53 61-41v41" id="T"/><path fill="#1071e5" d="M190-63c-7 42-38 67-86 67-59 0-84-38-90-98-12-110 154-137 174-36l-49 2c-2-19-15-32-35-32-30 0-35 28-38 64-6 74 65 87 74 30" id="U"/><path fill="#1071e5" d="M137-138c1-29-70-34-71-4 15 46 118 7 119 86 1 83-164 76-172 9l43-7c4 19 20 25 44 25 33 8 57-30 24-41C81-84 22-81 20-136c-2-80 154-74 161-7" id="V"/><path fill="#1071e5" d="M135-194c87-1 58 113 63 194h-50c-7-57 23-157-34-157-59 0-34 97-39 157H25l-1-190h47c2 12-1 28 3 38 12-26 28-41 61-42" id="W"/><path fill="#1071e5" d="M195-6C206 82 75 100 31 46c-4-6-6-13-8-21l49-6c3 16 16 24 34 25 40 0 42-37 40-79-11 22-30 35-61 35-53 0-70-43-70-97 0-56 18-96 73-97 30 0 46 14 59 34l2-30h47zm-90-29c32 0 41-27 41-63 0-35-9-62-40-62-32 0-39 29-40 63 0 36 9 62 39 62" id="X"/><g id="e"><use transform="matrix(0.10987654320987651,0,0,0.10987654320987651,0,0)" xlink:href="#S"/><use transform="matrix(0.10987654320987651,0,0,0.10987654320987651,26.370370370370363,0)" xlink:href="#T"/><use transform="matrix(0.10987654320987651,0,0,0.10987654320987651,41.753086419753075,0)" xlink:href="#R"/><use transform="matrix(0.10987654320987651,0,0,0.10987654320987651,65.81604938271603,0)" xlink:href="#U"/><use transform="matrix(0.10987654320987651,0,0,0.10987654320987651,87.79135802469133,0)" xlink:href="#Q"/><use transform="matrix(0.10987654320987651,0,0,0.10987654320987651,109.76666666666664,0)" xlink:href="#V"/><use transform="matrix(0.10987654320987651,0,0,0.10987654320987651,131.74197530864194,0)" xlink:href="#V"/><use transform="matrix(0.10987654320987651,0,0,0.10987654320987651,153.71728395061723,0)" xlink:href="#O"/><use transform="matrix(0.10987654320987651,0,0,0.10987654320987651,164.70493827160487,0)" xlink:href="#W"/><use transform="matrix(0.10987654320987651,0,0,0.10987654320987651,188.76790123456783,0)" xlink:href="#X"/></g><path fill="#1071e5" d="M76-208v77h127v40H76V0H24v-248h183v40H76" id="Y"/><path fill="#1071e5" d="M25 0v-261h50V0H25" id="Z"/><path fill="#1071e5" d="M231 0h-52l-39-155L100 0H48L-1-190h46L77-45c9-52 24-97 36-145h53l37 145 32-145h46" id="aa"/><path fill="#1071e5" d="M114-157C55-157 80-60 75 0H25v-261h50l-1 109c12-26 28-41 61-42 86-1 58 113 63 194h-50c-7-57 23-157-34-157" id="ab"/><path fill="#1071e5" d="M133-34C117-15 103 5 69 4 32 3 11-16 11-54c-1-60 55-63 116-61 1-26-3-47-28-47-18 1-26 9-28 27l-52-2c7-38 36-58 82-57s74 22 75 68l1 82c-1 14 12 18 25 15v27c-30 8-71 5-69-32zm-48 3c29 0 43-24 42-57-32 0-66-3-65 30 0 17 8 27 23 27" id="ac"/><path fill="#1071e5" d="M115-3C79 11 28 4 28-45v-112H4v-33h27l15-45h31v45h36v33H77v99c-1 23 16 31 38 25v30" id="ad"/><g id="f"><use transform="matrix(0.10987654320987651,0,0,0.10987654320987651,0,0)" xlink:href="#Y"/><use transform="matrix(0.10987654320987651,0,0,0.10987654320987651,24.062962962962956,0)" xlink:href="#Z"/><use transform="matrix(0.10987654320987651,0,0,0.10987654320987651,35.05061728395061,0)" xlink:href="#R"/><use transform="matrix(0.10987654320987651,0,0,0.10987654320987651,59.113580246913564,0)" xlink:href="#aa"/><use transform="matrix(0.10987654320987651,0,0,0.10987654320987651,89.87901234567899,0)" xlink:href="#U"/><use transform="matrix(0.10987654320987651,0,0,0.10987654320987651,111.85432098765429,0)" xlink:href="#ab"/><use transform="matrix(0.10987654320987651,0,0,0.10987654320987651,135.91728395061725,0)" xlink:href="#ac"/><use transform="matrix(0.10987654320987651,0,0,0.10987654320987651,157.89259259259256,0)" xlink:href="#T"/><use transform="matrix(0.10987654320987651,0,0,0.10987654320987651,173.27530864197527,0)" xlink:href="#ad"/></g><path fill="#1071e5" d="M222 0l43-216c-8 16-17 34-26 49L143 0h-22L81-216 41 0H11l48-248h42l38 208 116-208h45L252 0h-30" id="ae"/><path fill="#1071e5" d="M238-179c0 84-86 86-175 82L45 0H11l48-248c82 0 179-12 179 69zm-34 1c0-53-64-42-116-43l-19 98c63 0 135 9 135-55" id="af"/><path fill="#1071e5" d="M151-220L108 0H75l42-220H32l6-28h203l-5 28h-85" id="ag"/><g id="g"><use transform="matrix(0.04999999999999999,0,0,0.04999999999999999,0,0)" xlink:href="#ae"/><use transform="matrix(0.04999999999999999,0,0,0.04999999999999999,14.949999999999998,0)" xlink:href="#af"/><use transform="matrix(0.04999999999999999,0,0,0.04999999999999999,26.949999999999996,0)" xlink:href="#ag"/><use transform="matrix(0.04999999999999999,0,0,0.04999999999999999,37.89999999999999,0)" xlink:href="#D"/></g><path fill="#1071e5" d="M136-208V0H84v-208H4v-40h212v40h-80" id="ah"/><path fill="#1071e5" d="M135-194c53 0 70 44 70 98 0 56-19 98-73 100-31 1-45-17-59-34 3 33 2 69 2 105H25l-1-265h48c2 10 0 23 3 31 11-24 29-35 60-35zM114-30c33 0 39-31 40-66 0-38-9-64-40-64-56 0-55 130 0 130" id="ai"/><g id="h"><use transform="matrix(0.04938271604938272,0,0,0.04938271604938272,0,0)" xlink:href="#ah"/><use transform="matrix(0.04938271604938272,0,0,0.04938271604938272,9.82716049382716,0)" xlink:href="#T"/><use transform="matrix(0.04938271604938272,0,0,0.04938271604938272,16.74074074074074,0)" xlink:href="#ac"/><use transform="matrix(0.04938271604938272,0,0,0.04938271604938272,26.617283950617285,0)" xlink:href="#W"/><use transform="matrix(0.04938271604938272,0,0,0.04938271604938272,37.4320987654321,0)" xlink:href="#V"/><use transform="matrix(0.04938271604938272,0,0,0.04938271604938272,47.308641975308646,0)" xlink:href="#ai"/><use transform="matrix(0.04938271604938272,0,0,0.04938271604938272,58.12345679012346,0)" xlink:href="#R"/><use transform="matrix(0.04938271604938272,0,0,0.04938271604938272,68.93827160493828,0)" xlink:href="#T"/><use transform="matrix(0.04938271604938272,0,0,0.04938271604938272,75.85185185185186,0)" xlink:href="#ad"/></g><path fill="#1071e5" d="M169-182c-1-43-94-46-97-3 18 66 151 10 154 114 3 95-165 93-204 36-6-8-10-19-12-30l50-8c3 46 112 56 116 5-17-69-150-10-154-114-4-87 153-88 188-35 5 8 8 18 10 28" id="aj"/><path fill="#1071e5" d="M220-157c-53 9-28 100-34 157h-49v-107c1-27-5-49-29-50C55-147 81-57 75 0H25l-1-190h47c2 12-1 28 3 38 10-53 101-56 108 0 13-22 24-43 59-42 82 1 51 116 57 194h-49v-107c-1-25-5-48-29-50" id="ak"/><g id="i"><use transform="matrix(0.04938271604938272,0,0,0.04938271604938272,0,0)" xlink:href="#aj"/><use transform="matrix(0.04938271604938272,0,0,0.04938271604938272,11.851851851851853,0)" xlink:href="#ad"/><use transform="matrix(0.04938271604938272,0,0,0.04938271604938272,17.728395061728396,0)" xlink:href="#T"/><use transform="matrix(0.04938271604938272,0,0,0.04938271604938272,24.641975308641975,0)" xlink:href="#Q"/><use transform="matrix(0.04938271604938272,0,0,0.04938271604938272,34.51851851851852,0)" xlink:href="#ac"/><use transform="matrix(0.04938271604938272,0,0,0.04938271604938272,44.39506172839506,0)" xlink:href="#ak"/></g><path fill="#1071e5" d="M205 0l-28-72H64L36 0H1l101-248h38L239 0h-34zm-38-99l-47-123c-12 45-31 82-46 123h93" id="al"/><path fill="#1071e5" d="M84 4C-5 8 30-112 23-190h32v120c0 31 7 50 39 49 72-2 45-101 50-169h31l1 190h-30c-1-10 1-25-2-33-11 22-28 36-60 37" id="am"/><path fill="#1071e5" d="M85-194c31 0 48 13 60 33l-1-100h32l1 261h-30c-2-10 0-23-3-31C134-8 116 4 85 4 32 4 16-35 15-94c0-66 23-100 70-100zm9 24c-40 0-46 34-46 75 0 40 6 74 45 74 42 0 51-32 51-76 0-42-9-74-50-73" id="an"/><path fill="#1071e5" d="M24-231v-30h32v30H24zM24 0v-190h32V0H24" id="ao"/><path fill="#1071e5" d="M100-194c62-1 85 37 85 99 1 63-27 99-86 99S16-35 15-95c0-66 28-99 85-99zM99-20c44 1 53-31 53-75 0-43-8-75-51-75s-53 32-53 75 10 74 51 75" id="ap"/><g id="j"><use transform="matrix(0.06172839506172839,0,0,0.06172839506172839,0,0)" xlink:href="#al"/><use transform="matrix(0.06172839506172839,0,0,0.06172839506172839,14.814814814814813,0)" xlink:href="#am"/><use transform="matrix(0.06172839506172839,0,0,0.06172839506172839,27.160493827160494,0)" xlink:href="#an"/><use transform="matrix(0.06172839506172839,0,0,0.06172839506172839,39.50617283950617,0)" xlink:href="#ao"/><use transform="matrix(0.06172839506172839,0,0,0.06172839506172839,44.382716049382715,0)" xlink:href="#ap"/></g><path fill="#1071e5" d="M100-194c63 0 86 42 84 106H49c0 40 14 67 53 68 26 1 43-12 49-29l28 8c-11 28-37 45-77 45C44 4 14-33 15-96c1-61 26-98 85-98zm52 81c6-60-76-77-97-28-3 7-6 17-6 28h103" id="aq"/><path fill="#1071e5" d="M96-169c-40 0-48 33-48 73s9 75 48 75c24 0 41-14 43-38l32 2c-6 37-31 61-74 61-59 0-76-41-82-99-10-93 101-131 147-64 4 7 5 14 7 22l-32 3c-4-21-16-35-41-35" id="ar"/><path fill="#1071e5" d="M114-163C36-179 61-72 57 0H25l-1-190h30c1 12-1 29 2 39 6-27 23-49 58-41v29" id="as"/><g id="k"><use transform="matrix(0.06172839506172839,0,0,0.06172839506172839,0,0)" xlink:href="#an"/><use transform="matrix(0.06172839506172839,0,0,0.06172839506172839,12.345679012345679,0)" xlink:href="#aq"/><use transform="matrix(0.06172839506172839,0,0,0.06172839506172839,24.691358024691358,0)" xlink:href="#ar"/><use transform="matrix(0.06172839506172839,0,0,0.06172839506172839,35.80246913580247,0)" xlink:href="#ap"/><use transform="matrix(0.06172839506172839,0,0,0.06172839506172839,48.148148148148145,0)" xlink:href="#an"/><use transform="matrix(0.06172839506172839,0,0,0.06172839506172839,60.49382716049382,0)" xlink:href="#aq"/><use transform="matrix(0.06172839506172839,0,0,0.06172839506172839,72.8395061728395,0)" xlink:href="#as"/></g><path fill="#1071e5" d="M137 0h-34L2-248h35l83 218 83-218h36" id="at"/><g id="l"><use transform="matrix(0.06172839506172839,0,0,0.06172839506172839,0,0)" xlink:href="#at"/><use transform="matrix(0.06172839506172839,0,0,0.06172839506172839,14.382716049382715,0)" xlink:href="#ao"/><use transform="matrix(0.06172839506172839,0,0,0.06172839506172839,19.25925925925926,0)" xlink:href="#an"/><use transform="matrix(0.06172839506172839,0,0,0.06172839506172839,31.604938271604937,0)" xlink:href="#aq"/><use transform="matrix(0.06172839506172839,0,0,0.06172839506172839,43.95061728395061,0)" xlink:href="#ap"/></g><path fill="#1071e5" d="M212-179c-10-28-35-45-73-45-59 0-87 40-87 99 0 60 29 101 89 101 43 0 62-24 78-52l27 14C228-24 195 4 139 4 59 4 22-46 18-125c-6-104 99-153 187-111 19 9 31 26 39 46" id="au"/><path fill="#1071e5" d="M141-36C126-15 110 5 73 4 37 3 15-17 15-53c-1-64 63-63 125-63 3-35-9-54-41-54-24 1-41 7-42 31l-33-3c5-37 33-52 76-52 45 0 72 20 72 64v82c-1 20 7 32 28 27v20c-31 9-61-2-59-35zM48-53c0 20 12 33 32 33 41-3 63-29 60-74-43 2-92-5-92 41" id="av"/><path fill="#1071e5" d="M115-194c55 1 70 41 70 98S169 2 115 4C84 4 66-9 55-30l1 105H24l-1-265h31l2 30c10-21 28-34 59-34zm-8 174c40 0 45-34 45-75s-6-73-45-74c-42 0-51 32-51 76 0 43 10 73 51 73" id="aw"/><path fill="#1071e5" d="M59-47c-2 24 18 29 38 22v24C64 9 27 4 27-40v-127H5v-23h24l9-43h21v43h35v23H59v120" id="ax"/><path fill="#1071e5" d="M117-194c89-4 53 116 60 194h-32v-121c0-31-8-49-39-48C34-167 62-67 57 0H25l-1-190h30c1 10-1 24 2 32 11-22 29-35 61-36" id="ay"/><g id="m"><use transform="matrix(0.06172839506172839,0,0,0.06172839506172839,0,0)" xlink:href="#au"/><use transform="matrix(0.06172839506172839,0,0,0.06172839506172839,15.987654320987653,0)" xlink:href="#av"/><use transform="matrix(0.06172839506172839,0,0,0.06172839506172839,28.333333333333332,0)" xlink:href="#aw"/><use transform="matrix(0.06172839506172839,0,0,0.06172839506172839,40.67901234567901,0)" xlink:href="#ax"/><use transform="matrix(0.06172839506172839,0,0,0.06172839506172839,46.851851851851855,0)" xlink:href="#ao"/><use transform="matrix(0.06172839506172839,0,0,0.06172839506172839,51.7283950617284,0)" xlink:href="#ap"/><use transform="matrix(0.06172839506172839,0,0,0.06172839506172839,64.07407407407408,0)" xlink:href="#ay"/></g><path fill="#1071e5" d="M14-72v-43h91v43H14" id="az"/><path fill="#1071e5" d="M182-182c0 78-84 86-111 141h115V0H12c-6-101 99-100 120-180 1-22-12-31-33-32-23 0-32 14-35 34l-49-3c5-45 32-70 84-70 51 0 83 22 83 69" id="aA"/><g id="n"><use transform="matrix(0.04938271604938272,0,0,0.04938271604938272,0,0)" xlink:href="#aj"/><use transform="matrix(0.04938271604938272,0,0,0.04938271604938272,11.851851851851853,0)" xlink:href="#ad"/><use transform="matrix(0.04938271604938272,0,0,0.04938271604938272,17.728395061728396,0)" xlink:href="#T"/><use transform="matrix(0.04938271604938272,0,0,0.04938271604938272,24.641975308641975,0)" xlink:href="#Q"/><use transform="matrix(0.04938271604938272,0,0,0.04938271604938272,34.51851851851852,0)" xlink:href="#ac"/><use transform="matrix(0.04938271604938272,0,0,0.04938271604938272,44.39506172839506,0)" xlink:href="#ak"/><use transform="matrix(0.04938271604938272,0,0,0.04938271604938272,60.19753086419754,0)" xlink:href="#az"/><use transform="matrix(0.04938271604938272,0,0,0.04938271604938272,66.07407407407408,0)" xlink:href="#aA"/></g><path fill="#1071e5" d="M23 0v-37h61v-169l-59 37v-38l62-41h46v211h57V0H23" id="aB"/><g id="o"><use transform="matrix(0.04938271604938272,0,0,0.04938271604938272,0,0)" xlink:href="#aj"/><use transform="matrix(0.04938271604938272,0,0,0.04938271604938272,11.851851851851853,0)" xlink:href="#ad"/><use transform="matrix(0.04938271604938272,0,0,0.04938271604938272,17.728395061728396,0)" xlink:href="#T"/><use transform="matrix(0.04938271604938272,0,0,0.04938271604938272,24.641975308641975,0)" xlink:href="#Q"/><use transform="matrix(0.04938271604938272,0,0,0.04938271604938272,34.51851851851852,0)" xlink:href="#ac"/><use transform="matrix(0.04938271604938272,0,0,0.04938271604938272,44.39506172839506,0)" xlink:href="#ak"/><use transform="matrix(0.04938271604938272,0,0,0.04938271604938272,60.19753086419754,0)" xlink:href="#az"/><use transform="matrix(0.04938271604938272,0,0,0.04938271604938272,66.07407407407408,0)" xlink:href="#aB"/></g><path fill="#1071e5" d="M128-127c34 4 56 21 59 58 7 91-148 94-172 28-4-9-6-17-7-26l51-5c1 24 16 35 40 36 23 0 39-12 38-36-1-31-31-36-65-34v-40c32 2 59-3 59-33 0-20-13-33-34-33s-33 13-35 32l-50-3c6-44 37-68 86-68 50 0 83 20 83 66 0 35-22 52-53 58" id="aC"/><g id="p"><use transform="matrix(0.04938271604938272,0,0,0.04938271604938272,0,0)" xlink:href="#aj"/><use transform="matrix(0.04938271604938272,0,0,0.04938271604938272,11.851851851851853,0)" xlink:href="#ad"/><use transform="matrix(0.04938271604938272,0,0,0.04938271604938272,17.728395061728396,0)" xlink:href="#T"/><use transform="matrix(0.04938271604938272,0,0,0.04938271604938272,24.641975308641975,0)" xlink:href="#Q"/><use transform="matrix(0.04938271604938272,0,0,0.04938271604938272,34.51851851851852,0)" xlink:href="#ac"/><use transform="matrix(0.04938271604938272,0,0,0.04938271604938272,44.39506172839506,0)" xlink:href="#ak"/><use transform="matrix(0.04938271604938272,0,0,0.04938271604938272,60.19753086419754,0)" xlink:href="#az"/><use transform="matrix(0.04938271604938272,0,0,0.04938271604938272,66.07407407407408,0)" xlink:href="#aC"/></g><path fill="#1071e5" d="M67-125c0 53 21 87 73 88 37 1 54-22 65-47l45 17C233-25 199 4 140 4 58 4 20-42 15-125 8-235 124-281 211-232c18 10 29 29 36 50l-46 12c-8-25-30-41-62-41-52 0-71 34-72 86" id="aD"/><path fill="#1071e5" d="M230 0l2-204L168 0h-37L68-204 70 0H24v-248h70l56 185 57-185h69V0h-46" id="aE"/><g id="q"><use transform="matrix(0.04938271604938272,0,0,0.04938271604938272,0,0)" xlink:href="#S"/><use transform="matrix(0.04938271604938272,0,0,0.04938271604938272,11.851851851851853,0)" xlink:href="#aD"/><use transform="matrix(0.04938271604938272,0,0,0.04938271604938272,24.641975308641978,0)" xlink:href="#aE"/></g><path fill="#1071e5" d="M146-102V0H94v-102L6-248h54l60 105 60-105h54" id="aF"/><path fill="#1071e5" d="M238-95c0 69-44 99-111 99C63 4 22-25 22-93v-155h51v151c-1 38 19 59 55 60 90 1 49-130 58-211h52v153" id="aG"/><g id="r"><use transform="matrix(0.04938271604938272,0,0,0.04938271604938272,0,0)" xlink:href="#aF"/><use transform="matrix(0.04938271604938272,0,0,0.04938271604938272,11.851851851851853,0)" xlink:href="#aG"/><use transform="matrix(0.04938271604938272,0,0,0.04938271604938272,24.641975308641978,0)" xlink:href="#N"/></g><path fill="#1071e5" d="M30-248c87 1 191-15 191 75 0 78-77 80-158 76V0H30v-248zm33 125c57 0 124 11 124-50 0-59-68-47-124-48v98" id="aH"/><path fill="#1071e5" d="M135-143c-3-34-86-38-87 0 15 53 115 12 119 90S17 21 10-45l28-5c4 36 97 45 98 0-10-56-113-15-118-90-4-57 82-63 122-42 12 7 21 19 24 35" id="aI"/><path fill="#1071e5" d="M177-190C167-65 218 103 67 71c-23-6-38-20-44-43l32-5c15 47 100 32 89-28v-30C133-14 115 1 83 1 29 1 15-40 15-95c0-56 16-97 71-98 29-1 48 16 59 35 1-10 0-23 2-32h30zM94-22c36 0 50-32 50-73 0-42-14-75-50-75-39 0-46 34-46 75s6 73 46 73" id="aJ"/><g id="s"><use transform="matrix(0.06172839506172839,0,0,0.06172839506172839,0,0)" xlink:href="#aH"/><use transform="matrix(0.06172839506172839,0,0,0.06172839506172839,14.814814814814813,0)" xlink:href="#as"/><use transform="matrix(0.06172839506172839,0,0,0.06172839506172839,22.160493827160494,0)" xlink:href="#ap"/><use transform="matrix(0.06172839506172839,0,0,0.06172839506172839,34.50617283950617,0)" xlink:href="#ar"/><use transform="matrix(0.06172839506172839,0,0,0.06172839506172839,45.61728395061728,0)" xlink:href="#aq"/><use transform="matrix(0.06172839506172839,0,0,0.06172839506172839,57.962962962962955,0)" xlink:href="#aI"/><use transform="matrix(0.06172839506172839,0,0,0.06172839506172839,69.07407407407406,0)" xlink:href="#aI"/><use transform="matrix(0.06172839506172839,0,0,0.06172839506172839,80.18518518518518,0)" xlink:href="#ao"/><use transform="matrix(0.06172839506172839,0,0,0.06172839506172839,85.06172839506172,0)" xlink:href="#ay"/><use transform="matrix(0.06172839506172839,0,0,0.06172839506172839,97.4074074074074,0)" xlink:href="#aJ"/></g><path fill="#1071e5" d="M30 0v-248h187v28H63v79h144v27H63v87h162V0H30" id="aK"/><g id="t"><use transform="matrix(0.06172839506172839,0,0,0.06172839506172839,0,0)" xlink:href="#aK"/><use transform="matrix(0.06172839506172839,0,0,0.06172839506172839,14.814814814814813,0)" xlink:href="#ay"/><use transform="matrix(0.06172839506172839,0,0,0.06172839506172839,27.160493827160494,0)" xlink:href="#ar"/><use transform="matrix(0.06172839506172839,0,0,0.06172839506172839,38.27160493827161,0)" xlink:href="#ap"/><use transform="matrix(0.06172839506172839,0,0,0.06172839506172839,50.617283950617285,0)" xlink:href="#an"/><use transform="matrix(0.06172839506172839,0,0,0.06172839506172839,62.96296296296296,0)" xlink:href="#aq"/><use transform="matrix(0.06172839506172839,0,0,0.06172839506172839,75.30864197530865,0)" xlink:href="#as"/></g><g id="u"><use transform="matrix(0.04938271604938272,0,0,0.04938271604938272,0,0)" xlink:href="#S"/><use transform="matrix(0.04938271604938272,0,0,0.04938271604938272,11.851851851851853,0)" xlink:href="#T"/><use transform="matrix(0.04938271604938272,0,0,0.04938271604938272,18.765432098765434,0)" xlink:href="#R"/><use transform="matrix(0.04938271604938272,0,0,0.04938271604938272,29.58024691358025,0)" xlink:href="#U"/><use transform="matrix(0.04938271604938272,0,0,0.04938271604938272,39.45679012345679,0)" xlink:href="#Q"/><use transform="matrix(0.04938271604938272,0,0,0.04938271604938272,49.333333333333336,0)" xlink:href="#V"/><use transform="matrix(0.04938271604938272,0,0,0.04938271604938272,59.20987654320988,0)" xlink:href="#V"/><use transform="matrix(0.04938271604938272,0,0,0.04938271604938272,69.08641975308643,0)" xlink:href="#Q"/><use transform="matrix(0.04938271604938272,0,0,0.04938271604938272,78.96296296296298,0)" xlink:href="#P"/></g><g id="v"><use transform="matrix(0.04938271604938272,0,0,0.04938271604938272,0,0)" xlink:href="#aj"/><use transform="matrix(0.04938271604938272,0,0,0.04938271604938272,11.851851851851853,0)" xlink:href="#ad"/><use transform="matrix(0.04938271604938272,0,0,0.04938271604938272,17.728395061728396,0)" xlink:href="#T"/><use transform="matrix(0.04938271604938272,0,0,0.04938271604938272,24.641975308641975,0)" xlink:href="#Q"/><use transform="matrix(0.04938271604938272,0,0,0.04938271604938272,34.51851851851852,0)" xlink:href="#ac"/><use transform="matrix(0.04938271604938272,0,0,0.04938271604938272,44.39506172839506,0)" xlink:href="#ak"/><use transform="matrix(0.04938271604938272,0,0,0.04938271604938272,60.19753086419754,0)" xlink:href="#az"/><use transform="matrix(0.04938271604938272,0,0,0.04938271604938272,66.07407407407408,0)" xlink:href="#aB"/></g><g id="w"><use transform="matrix(0.04938271604938272,0,0,0.04938271604938272,0,0)" xlink:href="#aj"/><use transform="matrix(0.04938271604938272,0,0,0.04938271604938272,11.851851851851853,0)" xlink:href="#ad"/><use transform="matrix(0.04938271604938272,0,0,0.04938271604938272,17.728395061728396,0)" xlink:href="#T"/><use transform="matrix(0.04938271604938272,0,0,0.04938271604938272,24.641975308641975,0)" xlink:href="#Q"/><use transform="matrix(0.04938271604938272,0,0,0.04938271604938272,34.51851851851852,0)" xlink:href="#ac"/><use transform="matrix(0.04938271604938272,0,0,0.04938271604938272,44.39506172839506,0)" xlink:href="#ak"/><use transform="matrix(0.04938271604938272,0,0,0.04938271604938272,60.19753086419754,0)" xlink:href="#az"/><use transform="matrix(0.04938271604938272,0,0,0.04938271604938272,66.07407407407408,0)" xlink:href="#aA"/></g><g id="x"><use transform="matrix(0.04999999999999999,0,0,0.04999999999999999,0,0)" xlink:href="#ae"/><use transform="matrix(0.04999999999999999,0,0,0.04999999999999999,14.949999999999998,0)" xlink:href="#J"/><use transform="matrix(0.04999999999999999,0,0,0.04999999999999999,24.949999999999996,0)" xlink:href="#B"/><use transform="matrix(0.04999999999999999,0,0,0.04999999999999999,28.899999999999995,0)" xlink:href="#G"/><use transform="matrix(0.04999999999999999,0,0,0.04999999999999999,33.89999999999999,0)" xlink:href="#A"/><use transform="matrix(0.04999999999999999,0,0,0.04999999999999999,37.849999999999994,0)" xlink:href="#K"/><use transform="matrix(0.04999999999999999,0,0,0.04999999999999999,47.849999999999994,0)" xlink:href="#B"/><use transform="matrix(0.04999999999999999,0,0,0.04999999999999999,51.8,0)" xlink:href="#C"/><use transform="matrix(0.04999999999999999,0,0,0.04999999999999999,61.8,0)" xlink:href="#L"/><use transform="matrix(0.04999999999999999,0,0,0.04999999999999999,70.8,0)" xlink:href="#C"/><use transform="matrix(0.04999999999999999,0,0,0.04999999999999999,80.8,0)" xlink:href="#M"/></g><path fill="#1071e5" d="M30-248c118-7 216 8 213 122C240-48 200 0 122 0H30v-248zM63-27c89 8 146-16 146-99s-60-101-146-95v194" id="aL"/><path fill="#1071e5" d="M24 0v-261h32V0H24" id="aM"/><path fill="#1071e5" d="M108 0H70L1-190h34L89-25l56-165h34" id="aN"/><path fill="#1071e5" d="M87 75C49 33 22-17 22-94c0-76 28-126 65-167h31c-38 41-64 92-64 168S80 34 118 75H87" id="aO"/><path fill="#1071e5" d="M103-251c84 0 111 97 45 133-19 10-37 24-39 52H78c0-63 77-55 77-114 0-30-21-42-52-43-32 0-53 17-56 46l-32-2c7-45 34-72 88-72zM77 0v-35h34V0H77" id="aP"/><path fill="#1071e5" d="M33-261c38 41 65 92 65 168S71 34 33 75H2C39 34 66-17 66-93S39-220 2-261h31" id="aQ"/><g id="y"><use transform="matrix(0.06172839506172839,0,0,0.06172839506172839,0,0)" xlink:href="#aL"/><use transform="matrix(0.06172839506172839,0,0,0.06172839506172839,15.987654320987653,0)" xlink:href="#aq"/><use transform="matrix(0.06172839506172839,0,0,0.06172839506172839,28.333333333333332,0)" xlink:href="#aM"/><use transform="matrix(0.06172839506172839,0,0,0.06172839506172839,33.20987654320987,0)" xlink:href="#ao"/><use transform="matrix(0.06172839506172839,0,0,0.06172839506172839,38.08641975308642,0)" xlink:href="#aN"/><use transform="matrix(0.06172839506172839,0,0,0.06172839506172839,49.19753086419753,0)" xlink:href="#aq"/><use transform="matrix(0.06172839506172839,0,0,0.06172839506172839,61.54320987654321,0)" xlink:href="#as"/><use transform="matrix(0.06172839506172839,0,0,0.06172839506172839,68.88888888888889,0)" xlink:href="#aO"/><use transform="matrix(0.06172839506172839,0,0,0.06172839506172839,76.23456790123457,0)" xlink:href="#aP"/><use transform="matrix(0.06172839506172839,0,0,0.06172839506172839,88.58024691358025,0)" xlink:href="#aQ"/></g></defs></g></svg>